<?xml version="1.0" standalone="no"?>
<!DOCTYPE svg PUBLIC "-//W3C//DTD SVG 20010904//EN"
 "http://www.w3.org/TR/2001/REC-SVG-20010904/DTD/svg10.dtd">
<svg version="1.0" xmlns="http://www.w3.org/2000/svg"
 width="297.000000pt" height="297.000000pt" viewBox="0 0 297.000000 297.000000"
 preserveAspectRatio="xMidYMid meet">
<metadata>
Created by potrace 1.11, written by Peter Selinger 2001-2013
</metadata>
<g transform="translate(0.000000,297.000000) scale(0.100000,-0.100000)"
fill="#000000" stroke="none">
<path d="M2354 2959 c-40 -11 -99 -77 -125 -137 -22 -50 -44 -138 -54 -212 -3
-25 -8 -56 -10 -70 -6 -32 -17 -159 -30 -330 -3 -47 -8 -101 -10 -120 -2 -19
-6 -64 -10 -100 -6 -58 -23 -179 -29 -205 -2 -5 -6 -31 -10 -56 -8 -46 -8 -46
-39 -40 -18 4 -61 6 -97 5 -196 -6 -353 -44 -710 -174 -450 -164 -627 -213
-890 -246 -74 -9 -141 -17 -147 -17 -20 -1 -15 -13 9 -24 23 -10 -18 -14 -155
-16 -26 0 -44 -3 -40 -7 4 -4 66 -27 138 -50 181 -59 285 -100 285 -111 0 -6
4 -8 9 -4 5 3 12 1 16 -5 4 -6 11 -8 16 -5 5 4 18 0 29 -8 18 -13 11 -14 -65
-12 -47 1 -88 -1 -90 -5 -2 -4 -17 -6 -32 -5 -15 1 -33 -2 -38 -6 -12 -9 -34
-7 -54 5 -9 6 -12 5 -8 -1 7 -12 -20 -26 -33 -18 -4 3 -11 -2 -14 -11 -3 -8
-9 -13 -13 -11 -5 3 -22 -6 -38 -19 -33 -27 -34 -27 70 -23 219 6 324 -2 550
-43 166 -30 266 -54 420 -103 128 -41 269 -78 348 -92 18 -3 93 -7 168 -8 112
-3 151 0 215 16 80 21 171 61 227 101 183 129 331 415 372 717 19 138 10 207
-15 113 -52 -197 -56 -208 -58 -137 -1 32 4 65 10 72 6 7 16 38 23 68 13 54
13 81 1 535 -6 249 2 304 51 368 36 48 83 65 181 66 45 0 82 3 82 6 -1 9 -28
41 -34 41 -3 -1 -7 -1 -8 0 -18 5 -64 15 -118 24 -8 1 -19 0 -25 -4 -19 -11
-35 -9 -28 2 4 7 8 15 9 20 1 4 2 8 4 10 1 1 3 9 5 19 4 23 24 56 25 40 0 -7
4 -11 9 -7 6 3 15 -4 21 -15 6 -11 16 -17 22 -14 7 4 8 3 4 -4 -4 -7 -2 -12 4
-12 7 0 9 -8 4 -22 -6 -20 -5 -21 9 -10 13 11 19 11 36 0 12 -7 21 -16 21 -21
0 -4 4 -6 9 -2 6 3 13 -1 18 -8 9 -16 87 -37 135 -37 31 0 30 1 -30 37 -65 39
-103 73 -235 210 -42 44 -93 88 -113 98 -43 20 -108 27 -150 14z m16 -103 c0
-2 -8 -10 -17 -17 -16 -13 -17 -12 -4 4 13 16 21 21 21 13z m-313 -1192 c-3
-3 -12 -4 -19 -1 -8 3 -5 6 6 6 11 1 17 -2 13 -5z m-121 -36 c4 -7 3 -10 -1
-5 -5 4 -17 0 -27 -10 -12 -11 -18 -12 -18 -3 0 9 -5 9 -22 -2 -24 -16 -48
-13 -48 4 0 6 6 6 15 -2 13 -11 19 -7 17 11 -1 4 12 5 28 3 16 -2 32 1 35 6 8
13 12 13 21 -2z m-113 -51 c-3 -4 -6 -7 -7 -5 -1 2 -8 12 -16 22 -14 18 -14
18 7 6 12 -8 19 -18 16 -23z m-82 4 c-8 -6 -9 -11 -3 -15 6 -3 17 3 25 14 13
18 16 19 27 5 7 -9 10 -18 6 -22 -3 -3 -6 -1 -6 5 0 7 -5 12 -11 12 -5 0 -7
-5 -4 -10 4 -6 3 -9 -2 -8 -4 1 -23 -6 -42 -16 -18 -10 -30 -12 -26 -6 5 8 3
11 -6 8 -8 -3 -12 -12 -11 -19 2 -8 0 -11 -4 -6 -4 4 -17 -1 -28 -10 l-21 -18
20 25 c32 39 49 50 57 37 4 -6 10 -8 14 -4 4 3 1 14 -7 24 -8 9 -9 14 -2 10 6
-4 15 -2 18 4 4 5 10 8 13 4 4 -3 0 -10 -7 -14z m-81 -31 c0 -5 -7 -6 -17 -3
-10 4 -14 2 -10 -4 12 -19 -3 -45 -18 -33 -7 6 -19 8 -28 4 -18 -7 -32 12 -16
22 8 4 9 3 5 -4 -4 -7 -2 -12 3 -12 6 0 11 4 11 8 0 10 38 30 58 31 6 1 12 -3
12 -9z m-80 -64 c0 -5 -7 -3 -15 4 -10 8 -19 9 -27 3 -7 -6 -23 -9 -36 -8 -13
1 -21 -3 -19 -9 2 -6 15 -10 28 -9 21 2 22 2 6 -8 -13 -8 -22 -7 -33 1 -25 21
-17 39 18 37 19 -1 33 3 36 12 3 9 0 11 -8 6 -9 -5 -11 -4 -6 3 5 9 14 7 31
-5 14 -10 25 -22 25 -27z m30 10 c0 -3 -4 -8 -10 -11 -5 -3 -10 -1 -10 4 0 6
5 11 10 11 6 0 10 -2 10 -4z m-147 -30 l16 -24 -29 15 c-32 16 -41 27 -13 16
11 -4 14 -3 9 5 -14 23 2 12 17 -12z m-49 -17 c-2 -4 0 -10 6 -14 5 -3 10 -2
10 4 0 6 8 7 17 4 15 -6 14 -7 -3 -14 -23 -8 -37 3 -41 33 -2 18 -1 19 6 8 5
-8 8 -17 5 -21z m-27 9 c-2 -7 3 -22 12 -33 9 -11 12 -17 7 -13 -5 4 -16 2
-25 -5 -14 -10 -14 -10 -4 4 11 13 9 16 -17 16 -16 0 -27 -4 -24 -9 7 -10 -24
-48 -39 -48 -5 0 1 9 14 19 13 11 21 22 17 26 -4 4 -14 0 -23 -9 -13 -12 -21
-14 -37 -5 -11 6 -17 13 -14 16 3 3 13 0 23 -8 15 -12 16 -12 10 4 -4 10 -3
16 2 12 15 -8 42 6 34 19 -3 6 -3 8 2 4 4 -4 14 -3 22 4 11 8 12 7 7 -6 -3 -9
-1 -16 5 -16 10 0 15 14 12 33 0 4 4 7 10 7 6 0 9 -6 6 -12z m-107 -85 c0 -2
-4 -1 -10 2 -5 3 -10 0 -11 -7 0 -7 -4 -3 -9 9 -6 16 -15 21 -27 17 -14 -5
-15 -4 -4 4 10 7 21 6 38 -5 13 -8 23 -17 23 -20z m-87 -13 c3 -10 2 -19 -2
-18 -3 1 -17 -4 -31 -11 l-25 -13 23 21 c12 12 22 27 22 34 0 7 -16 -5 -36
-26 -37 -39 -48 -40 -56 -9 -3 12 0 19 9 19 9 0 11 -7 7 -21 -6 -19 -5 -19 10
-7 9 8 15 20 12 27 -3 9 0 11 11 7 12 -5 14 -3 8 7 -5 8 -4 11 3 6 6 -3 13 -2
17 4 9 14 21 5 28 -20z m47 8 c0 -3 -9 -6 -20 -5 -11 1 -20 5 -20 9 0 3 9 6
20 5 11 -1 20 -5 20 -9z m-163 -41 c9 -19 8 -24 -3 -24 -7 0 -11 4 -8 9 3 5 0
15 -6 23 -7 8 -8 15 -3 15 5 0 15 -10 20 -23z m-30 -18 c-1 -10 -5 -19 -10
-19 -5 0 -7 6 -4 14 3 7 0 19 -6 25 -9 9 -8 11 5 6 9 -4 16 -15 15 -26z m-31
2 c1 -6 0 -7 -3 -1 -7 15 -23 1 -16 -15 3 -8 0 -15 -7 -15 -6 0 -8 5 -4 11 4
7 1 10 -7 7 -8 -3 -13 -10 -12 -16 3 -13 -36 -7 -51 8 -8 8 -6 9 8 4 13 -5 17
-4 12 4 -4 7 -2 12 3 12 6 0 11 -5 11 -10 0 -6 8 -5 19 2 11 7 18 15 15 19 -2
4 4 6 13 5 9 -2 18 -8 19 -15z m-176 -66 c0 -5 -5 -3 -10 5 -5 8 -10 20 -10
25 0 6 5 3 10 -5 5 -8 10 -19 10 -25z m25 25 c5 -8 11 -7 20 0 10 9 19 9 32 0
11 -7 12 -10 3 -7 -8 2 -22 1 -31 -4 -10 -5 -23 -3 -35 6 -11 8 -14 15 -7 15
6 0 15 -5 18 -10z m-52 -13 c3 -8 -3 -13 -14 -13 -22 0 -25 12 -6 19 6 3 13 6
13 6 1 1 4 -5 7 -12z m-52 -6 c7 11 9 10 9 -4 0 -20 -22 -19 -26 1 -2 9 -1 9
3 1 4 -8 8 -7 14 2z m-56 -23 c4 0 12 6 17 14 8 10 9 10 5 -2 -3 -13 -12 -15
-48 -11 -5 0 -7 6 -3 12 5 8 9 8 14 -1 4 -6 11 -12 15 -12z m-79 3 c-3 -5 -17
-11 -32 -14 -29 -5 -20 9 11 16 11 3 21 5 23 6 2 0 1 -3 -2 -8z m1678 -66 c-4
-8 -9 -15 -13 -15 -4 0 -8 -6 -8 -13 0 -17 -53 -97 -65 -97 -5 0 -7 -4 -4 -8
7 -12 -80 -109 -104 -117 -11 -4 -18 -11 -15 -16 3 -5 -2 -6 -11 -2 -11 4 -15
2 -11 -4 4 -6 -4 -18 -18 -27 -14 -9 -25 -13 -25 -10 0 4 -8 0 -18 -9 -10 -10
-22 -14 -25 -10 -4 3 -7 1 -7 -6 0 -7 -4 -9 -10 -6 -5 3 -10 1 -10 -5 0 -6 -4
-9 -9 -5 -5 3 -12 1 -16 -5 -9 -15 -22 -12 -29 7 -5 11 0 23 14 33 21 16 21
16 -7 15 -22 0 -28 -5 -26 -21 1 -12 -4 -21 -13 -21 -10 0 -12 7 -8 21 8 26
25 37 43 31 8 -3 18 0 22 6 4 7 15 14 23 15 9 1 14 -2 10 -7 -3 -5 -11 -6 -17
-2 -8 4 -8 1 1 -9 11 -13 9 -19 -14 -35 -19 -14 -22 -20 -10 -20 9 0 16 4 16
9 0 5 4 7 8 4 4 -2 14 -1 22 4 11 7 11 12 2 23 -10 12 -8 15 14 15 18 0 22 -4
15 -11 -6 -6 -11 -14 -11 -19 0 -4 11 4 24 17 16 16 32 23 43 19 17 -5 17 -5
1 8 -16 14 -16 16 0 33 16 18 16 18 0 6 -10 -8 -18 -10 -18 -5 1 11 76 64 91
64 5 0 7 6 3 13 -4 6 2 3 14 -7 12 -11 25 -17 28 -13 9 9 -6 28 -17 22 -25
-16 -3 14 50 67 33 32 59 60 59 61 -1 1 5 12 13 25 16 25 31 30 23 7z m-983
-88 c-10 -9 -11 -8 -5 6 3 10 9 15 12 12 3 -3 0 -11 -7 -18z m715 -172 c1 -8
-2 -13 -7 -9 -5 3 -9 0 -9 -7 0 -7 -2 -10 -5 -8 -2 3 -2 15 2 27 6 24 15 22
19 -3z m-26 6 c0 -5 -7 -14 -15 -21 -16 -14 -18 -10 -9 14 6 17 24 22 24 7z
m-183 -69 c-1 -15 -9 -19 -42 -18 -32 1 -40 -2 -39 -16 1 -10 -2 -18 -8 -18
-5 0 -7 -4 -4 -8 3 -5 -23 -7 -57 -5 -34 2 -81 3 -104 3 -24 1 -43 5 -43 11 0
6 7 9 15 5 19 -7 45 3 45 16 0 7 -5 6 -14 -1 -7 -6 -20 -9 -29 -5 -8 3 -18 1
-22 -5 -7 -13 -48 -15 -59 -3 -4 4 -16 8 -27 8 -10 1 -20 2 -21 4 -4 3 -40 10
-65 12 -13 1 -23 6 -23 11 0 5 10 5 23 1 31 -11 297 -13 325 -2 17 6 21 5 16
-4 -5 -7 -2 -9 9 -5 11 4 14 2 10 -9 -4 -11 -9 -12 -16 -5 -14 14 -27 14 -27
0 0 -5 4 -8 9 -4 6 3 14 -2 19 -11 5 -9 15 -14 21 -10 6 4 9 11 6 16 -8 13 4
37 20 38 8 1 26 2 40 3 14 1 28 5 31 10 8 14 13 10 11 -9z m29 1 c-3 -10 -1
-25 4 -33 5 -8 10 -10 10 -4 0 6 6 11 13 11 8 0 14 -6 14 -13 0 -7 -11 -11
-24 -9 -12 1 -23 -1 -23 -5 0 -4 -9 -10 -19 -13 -13 -3 -18 0 -15 8 3 7 0 16
-7 21 -7 4 -10 3 -6 -3 4 -6 0 -16 -8 -23 -13 -11 -14 -10 -10 3 4 8 1 18 -6
23 -8 4 -10 3 -5 -4 5 -8 2 -10 -8 -6 -9 3 -16 9 -16 13 0 10 52 8 68 -2 11
-7 17 3 13 26 0 4 4 7 10 7 5 0 7 5 4 10 -3 6 -1 10 5 10 6 0 9 -8 6 -17z m54
13 c0 -3 -4 -8 -10 -11 -5 -3 -10 -1 -10 4 0 6 5 11 10 11 6 0 10 -2 10 -4z
m-140 -76 c0 -5 -4 -10 -10 -10 -5 0 -10 5 -10 10 0 6 5 10 10 10 6 0 10 -4
10 -10z"/>
<path d="M1610 1530 c0 -5 5 -10 10 -10 6 0 10 5 10 10 0 6 -4 10 -10 10 -5 0
-10 -4 -10 -10z"/>
<path d="M2220 1073 c-34 -38 -55 -88 -26 -61 8 7 11 14 6 16 -4 2 8 18 26 38
31 31 40 44 31 44 -2 0 -19 -17 -37 -37z"/>
<path d="M2104 968 c-2 -4 4 -12 13 -18 15 -9 12 -10 -15 -6 -19 2 -30 0 -26
-5 3 -6 2 -16 -3 -22 -4 -7 -1 -5 9 5 9 11 18 14 20 7 2 -6 15 -2 31 11 15 12
25 25 22 30 -6 10 -44 9 -51 -2z m46 -2 c0 -3 -4 -8 -10 -11 -5 -3 -10 -1 -10
4 0 6 5 11 10 11 6 0 10 -2 10 -4z"/>
<path d="M1490 808 c0 -4 4 -8 9 -8 6 0 12 4 15 8 3 5 -1 9 -9 9 -8 0 -15 -4
-15 -9z"/>
<path d="M1596 803 c-6 -14 -5 -15 5 -6 7 7 10 15 7 18 -3 3 -9 -2 -12 -12z"/>
<path d="M1625 801 c2 -16 25 -23 25 -8 0 4 0 11 0 15 0 5 -6 9 -14 9 -7 0
-13 -7 -11 -16z"/>
<path d="M1836 803 c-6 -14 -5 -15 5 -6 7 7 10 15 7 18 -3 3 -9 -2 -12 -12z"/>
<path d="M2579 2733 c-2 -16 -6 -32 -9 -35 -1 -2 -3 -11 -5 -21 -2 -11 1 -14
8 -10 7 4 24 8 40 8 31 0 32 10 6 44 -12 14 -19 18 -19 10 0 -11 -2 -11 -10 1
-7 10 -10 11 -11 3z m46 -33 c13 -14 11 -16 -20 -16 -24 0 -31 4 -25 12 6 6 8
13 5 16 -3 2 2 5 10 5 8 0 22 -8 30 -17z"/>
<path d="M2596 2702 c-3 -5 1 -9 9 -9 8 0 12 4 9 9 -3 4 -7 8 -9 8 -2 0 -6 -4
-9 -8z"/>
<path d="M2670 2666 c0 -2 7 -7 16 -10 8 -3 12 -2 9 4 -6 10 -25 14 -25 6z"/>
<path d="M404 1053 c5 -9 -4 -11 -34 -8 -30 3 -42 0 -47 -11 -4 -12 -8 -13
-14 -3 -5 9 -11 10 -21 2 -13 -12 -18 -13 -43 -13 -8 0 -15 -4 -15 -9 0 -7 40
-8 48 -1 1 1 14 3 30 4 15 1 32 4 37 7 6 3 33 5 62 4 28 0 49 3 46 8 -3 4 -8
6 -11 3 -3 -3 -14 2 -25 11 -11 10 -17 13 -13 6z m-54 -17 c0 -3 -4 -8 -10
-11 -5 -3 -10 -1 -10 4 0 6 5 11 10 11 6 0 10 -2 10 -4z"/>
<path d="M1416 636 c-3 -12 -8 -41 -11 -62 -12 -79 -28 -122 -91 -256 -70
-145 -81 -192 -59 -244 20 -49 58 -69 137 -71 64 -1 88 2 181 28 81 22 28 44
-118 49 -27 1 -65 7 -83 12 -32 9 -33 12 -28 43 4 19 27 76 51 127 58 122 74
186 70 273 -5 103 -33 162 -49 101z"/>
<path d="M1715 629 c-3 -8 -9 -34 -14 -59 -5 -25 -23 -99 -40 -165 -39 -146
-43 -218 -15 -266 24 -42 75 -69 130 -69 48 0 131 23 159 45 30 22 6 32 -81
34 -87 2 -123 13 -126 38 0 10 -2 25 -2 33 -1 8 4 49 11 90 14 81 25 160 28
200 4 62 -35 157 -50 119z"/>
</g>
</svg>
